<svg width="31" height="20" viewBox="0 0 31 20" fill="none" xmlns="http://www.w3.org/2000/svg">
<path d="M0.535511 0.0909085H5.01349L9.32528 8.23438H9.50994L13.8217 0.0909085H18.2997L11.4027 12.3153V19H7.43253V12.3153L0.535511 0.0909085ZM23.8464 19.277C22.4122 19.277 21.1719 18.9723 20.1255 18.3629C19.0853 17.7474 18.282 16.8918 17.7157 15.7962C17.1494 14.6944 16.8663 13.4171 16.8663 11.9645C16.8663 10.4995 17.1494 9.21922 17.7157 8.12358C18.282 7.02178 19.0853 6.16619 20.1255 5.55682C21.1719 4.94129 22.4122 4.63352 23.8464 4.63352C25.2806 4.63352 26.5178 4.94129 27.5581 5.55682C28.6045 6.16619 29.4108 7.02178 29.9771 8.12358C30.5434 9.21922 30.8265 10.4995 30.8265 11.9645C30.8265 13.4171 30.5434 14.6944 29.9771 15.7962C29.4108 16.8918 28.6045 17.7474 27.5581 18.3629C26.5178 18.9723 25.2806 19.277 23.8464 19.277ZM23.8649 16.2301C24.5173 16.2301 25.0621 16.0455 25.4991 15.6761C25.9361 15.3007 26.2654 14.7898 26.487 14.1435C26.7148 13.4972 26.8287 12.7616 26.8287 11.9368C26.8287 11.112 26.7148 10.3764 26.487 9.73011C26.2654 9.08381 25.9361 8.57292 25.4991 8.19744C25.0621 7.82197 24.5173 7.63423 23.8649 7.63423C23.2063 7.63423 22.6523 7.82197 22.2029 8.19744C21.7598 8.57292 21.4243 9.08381 21.1966 9.73011C20.975 10.3764 20.8642 11.112 20.8642 11.9368C20.8642 12.7616 20.975 13.4972 21.1966 14.1435C21.4243 14.7898 21.7598 15.3007 22.2029 15.6761C22.6523 16.0455 23.2063 16.2301 23.8649 16.2301Z" fill="black"/>
</svg>
